<?xml version="1.0" encoding="utf-8"?>
<!-- Generator: Adobe Illustrator 16.0.0, SVG Export Plug-In . SVG Version: 6.00 Build 0)  -->
<!DOCTYPE svg PUBLIC "-//W3C//DTD SVG 1.1//EN" "http://www.w3.org/Graphics/SVG/1.1/DTD/svg11.dtd">
<svg version="1.1" id="Layer_1" xmlns="http://www.w3.org/2000/svg" xmlns:xlink="http://www.w3.org/1999/xlink" x="0px" y="0px"
	 width="100px" height="100px" viewBox="0 0 100 100" enable-background="new 0 0 100 100" xml:space="preserve">
<path fill="#B2C9AB" d="M80.656,49.049c0,0.391,0,0.782,0,1.173c-0.372,0.604-0.668,1.278-1.137,1.795
	c-0.582,0.641-1.434,0.743-2.275,0.741c-1.305-0.003-2.61-0.001-3.979-0.001c0,0.289,0,0.52,0,0.749c0,7.843,0,15.683-0.002,23.523
	c0,1.425-0.649,2.081-2.072,2.081c-4.713,0.004-9.426,0.004-14.137,0c-1.455,0-2.096-0.652-2.096-2.12
	c-0.001-4.614-0.001-9.229-0.001-13.845c0-0.228,0-0.455,0-0.684c-2.933,0-5.792,0-8.683,0c0,0.257,0,0.471,0,0.684
	c0,4.596,0,9.189,0,13.785c0,1.549-0.62,2.18-2.153,2.182c-4.654,0.001-9.308,0.001-13.961,0c-1.581-0.002-2.192-0.615-2.192-2.199
	c0-7.803,0-15.604,0-23.406c0-0.229,0-0.459,0-0.75c-1.387,0-2.712-0.003-4.036,0.001c-1.144,0.003-2.125-0.352-2.779-1.334
	c-0.244-0.366-0.386-0.8-0.575-1.203c0-0.391,0-0.782,0-1.173c0.286-0.78,0.74-1.429,1.363-1.996
	c8.783-7.985,17.554-15.983,26.331-23.974c0.272-0.248,0.568-0.487,0.889-0.664c1.3-0.717,2.574-0.46,3.89,0.739
	c8.599,7.838,17.196,15.679,25.806,23.506C79.615,47.351,80.333,48.044,80.656,49.049z"/>
<path fill="#FFFFFF" d="M74.564,37.938c-4.566-4.153-9.018-8.199-13.56-12.33c0.257-0.022,0.415-0.048,0.572-0.048
	c3.655-0.002,7.313-0.005,10.968,0c1.35,0.002,2.018,0.672,2.02,2.017c0.004,3.265,0,6.53,0,9.795
	C74.564,37.507,74.564,37.643,74.564,37.938z"/>
</svg>
