<?xml version="1.0" encoding="utf-8"?>
<!-- Generator: Adobe Illustrator 16.0.0, SVG Export Plug-In . SVG Version: 6.00 Build 0)  -->
<!DOCTYPE svg PUBLIC "-//W3C//DTD SVG 1.1//EN" "http://www.w3.org/Graphics/SVG/1.1/DTD/svg11.dtd">
<svg version="1.1" id="Layer_1" xmlns="http://www.w3.org/2000/svg" xmlns:xlink="http://www.w3.org/1999/xlink" x="0px" y="0px"
	 width="100px" height="100px" viewBox="0 0 100 100" enable-background="new 0 0 100 100" xml:space="preserve">
<g>
	<path fill-rule="evenodd" clip-rule="evenodd" fill="#65805D" d="M66.821,56.311c1.248-0.651,2.58-1.564,4.053-2.074
		c4.235-1.47,8.126-0.634,11.511,2.273c1.357,1.165,2.793,1.891,4.602,1.945c1.623,0.048,2.783,1.368,2.706,2.915
		c-0.075,1.505-1.298,2.629-2.902,2.624c-3.005-0.011-5.599-1.081-7.798-3.111c-1.176-1.085-2.539-1.714-4.143-1.76
		c-1.772-0.05-3.238,0.64-4.564,1.801c-3.472,3.041-7.457,3.902-11.804,2.338c-1.407-0.506-2.756-1.377-3.908-2.347
		c-2.808-2.363-6.043-2.425-8.777,0.034c-2.175,1.957-4.71,3.018-7.65,3.046c-1.716,0.017-2.957-1.119-2.997-2.709
		c-0.039-1.537,1.144-2.787,2.794-2.838c1.711-0.052,3.12-0.693,4.379-1.83c4.528-4.087,11.082-4.095,15.668-0.039
		c0.926,0.819,1.931,1.461,3.343,1.731c-0.231-0.808-0.41-1.514-0.638-2.205c-1.752-5.339-4.357-10.279-7.115-15.145
		c-4.161-7.342-8.833-14.357-13.699-21.246c-0.064-0.091-0.146-0.171-0.253-0.294c-0.098,0.084-0.197,0.141-0.257,0.225
		c-6.52,9.204-12.684,18.628-17.694,28.759c-1.67,3.377-3.204,6.825-3.976,10.535c-0.983,4.724-0.037,9.215,2.253,13.343
		c4.463,8.045,11.429,11.991,20.618,11.84c3.863-0.063,7.453-1.271,10.758-3.299c0.536-0.329,1.107-0.679,1.707-0.808
		c1.318-0.283,2.604,0.49,3.074,1.712c0.479,1.238,0.058,2.559-1.114,3.346c-3.649,2.449-7.67,3.943-12.025,4.45
		c-11.606,1.352-22.639-4.429-28.001-14.683c-2.5-4.78-3.691-9.874-3.007-15.275c0.496-3.912,1.952-7.557,3.554-11.13
		c3.863-8.621,8.814-16.623,14.068-24.443c2.455-3.654,5.038-7.224,7.597-10.808c1.238-1.734,3.498-1.82,4.721-0.145
		c7.75,10.609,15.066,21.498,20.79,33.362C64.262,49.65,65.48,53.065,66.821,56.311z"/>
	<path fill-rule="evenodd" clip-rule="evenodd" fill="#65805D" d="M77.138,47.979c-6.944-0.011-12.638-5.779-12.477-12.682
		c0.055-2.341,0.987-4.451,1.979-6.512c2.245-4.664,5.153-8.916,8.272-13.025c1.133-1.493,3.334-1.554,4.449-0.077
		c3.65,4.833,6.996,9.843,9.387,15.467C92.056,38.931,86.02,47.998,77.138,47.979z M77.167,22.082
		c-2.53,3.788-5.045,7.401-6.553,11.573c-0.303,0.839-0.43,1.839-0.304,2.717c0.413,2.896,2.072,4.874,4.887,5.725
		c2.714,0.822,5.141,0.139,7.053-1.925c1.97-2.127,2.392-4.596,1.218-7.315C81.829,29.061,79.584,25.63,77.167,22.082z"/>
	<path fill-rule="evenodd" clip-rule="evenodd" fill="#65805D" d="M62.383,75.477c-2.945-0.063-5.55-1.029-7.762-2.998
		c-2.853-2.538-6.043-2.558-8.881-0.024c-2.161,1.929-4.677,2.962-7.578,3.011c-1.708,0.028-2.964-1.11-3.024-2.692
		c-0.059-1.564,1.161-2.81,2.857-2.864c1.607-0.051,2.969-0.628,4.166-1.697c4.814-4.299,11.267-4.274,16.06,0.042
		c2.457,2.213,5.883,2.216,8.366,0.008c4.907-4.362,11.304-4.344,16.196,0.048c1.122,1.007,2.431,1.539,3.94,1.595
		c1.787,0.064,3,1.232,2.972,2.843c-0.029,1.607-1.304,2.758-3.075,2.72c-2.801-0.061-5.267-1.025-7.366-2.877
		c-3.047-2.687-6.097-2.707-9.152-0.034C67.895,74.485,65.311,75.422,62.383,75.477z"/>
</g>
</svg>
