<?xml version="1.0" encoding="utf-8"?>
<!-- Generator: Adobe Illustrator 16.0.0, SVG Export Plug-In . SVG Version: 6.00 Build 0)  -->
<!DOCTYPE svg PUBLIC "-//W3C//DTD SVG 1.1//EN" "http://www.w3.org/Graphics/SVG/1.1/DTD/svg11.dtd">
<svg version="1.1" id="Layer_1" xmlns="http://www.w3.org/2000/svg" xmlns:xlink="http://www.w3.org/1999/xlink" x="0px" y="0px"
	 width="100px" height="100px" viewBox="0 0 100 100" enable-background="new 0 0 100 100" xml:space="preserve">
<path fill-rule="evenodd" clip-rule="evenodd" fill="#FFFFFF" d="M82.719,56.531c0,0.335,0,0.67,0,1.004
	c-0.088,0.252-0.192,0.5-0.262,0.757c-1.739,6.472-5.069,11.96-10.156,16.344c-5.284,4.555-11.425,7.184-18.36,7.833
	c-6.328,0.592-12.386-0.52-17.989-3.563c-9.305-5.053-14.992-12.809-16.963-23.239c-0.228-1.205-0.336-2.434-0.5-3.651
	c0-1.129,0-2.258,0-3.387c0.035-0.266,0.062-0.534,0.105-0.798c0.341-2.077,0.549-4.188,1.058-6.224
	c1.046-4.182,2.972-7.974,5.625-11.37c2.654-3.397,5.873-6.167,9.609-8.321c2.398-1.382,4.937-2.443,7.609-3.164
	c1.556-0.42,3.023,0.878,2.672,2.407c-0.128,0.558-0.523,1.083-0.886,1.554c-2.841,3.687-4.318,7.899-4.678,12.491
	c-0.412,5.255,0.769,10.17,3.575,14.654c3.325,5.314,8.037,8.805,14.061,10.509c3.872,1.096,7.786,1.185,11.712,0.299
	c3.667-0.827,6.944-2.463,9.878-4.81C80.463,54.55,81.7,54.78,82.719,56.531z"/>
</svg>
