<?xml version="1.0" encoding="utf-8"?>
<!-- Generator: Adobe Illustrator 16.0.0, SVG Export Plug-In . SVG Version: 6.00 Build 0)  -->
<!DOCTYPE svg PUBLIC "-//W3C//DTD SVG 1.1//EN" "http://www.w3.org/Graphics/SVG/1.1/DTD/svg11.dtd">
<svg version="1.1" id="Layer_1" xmlns="http://www.w3.org/2000/svg" xmlns:xlink="http://www.w3.org/1999/xlink" x="0px" y="0px"
	 width="100px" height="100px" viewBox="0 0 100 100" enable-background="new 0 0 100 100" xml:space="preserve">
<g>
	<path fill-rule="evenodd" clip-rule="evenodd" fill="#FFFFFF" d="M48.646,84.205c-1.203-0.17-2.411-0.306-3.607-0.515
		c-13.448-2.354-24.104-13.109-26.365-26.594c-2.395-14.285,4.659-28.088,17.659-34.556c2.117-1.053,4.502-0.327,5.558,1.692
		c1.066,2.039,0.294,4.469-1.853,5.546c-4.592,2.305-8.195,5.636-10.688,10.14c-7.063,12.764-1.184,29.074,12.397,34.412
		c13.693,5.383,28.857-2.318,32.603-16.557c2.887-10.972-2.278-22.546-12.395-27.708c-1.28-0.653-2.334-1.463-2.695-2.914
		c-0.412-1.654,0.039-3.084,1.35-4.166c1.313-1.084,2.811-1.243,4.348-0.522c2.518,1.181,4.835,2.689,6.938,4.508
		c6.675,5.773,10.433,13.078,11.239,21.852c1.522,16.563-10.02,31.774-26.374,34.822c-1.3,0.242-2.62,0.375-3.931,0.559
		C51.436,84.205,50.041,84.205,48.646,84.205z"/>
	<path fill-rule="evenodd" clip-rule="evenodd" fill="#FFFFFF" d="M51.393,17.247c0.184,0.061,0.368,0.123,0.553,0.182
		c1.684,0.539,2.845,2.049,2.848,3.818c0.013,7.579,0.018,15.159-0.003,22.738c-0.006,2.229-1.87,4.003-4.085,3.986
		c-2.185-0.017-4.014-1.789-4.02-3.986c-0.019-7.58-0.015-15.159-0.002-22.738c0.003-1.79,1.195-3.317,2.91-3.838
		c0.165-0.05,0.328-0.107,0.492-0.161C50.521,17.247,50.956,17.247,51.393,17.247z"/>
</g>
</svg>
