<?xml version="1.0" encoding="utf-8"?>
<!-- Generator: Adobe Illustrator 16.0.0, SVG Export Plug-In . SVG Version: 6.00 Build 0)  -->
<!DOCTYPE svg PUBLIC "-//W3C//DTD SVG 1.1//EN" "http://www.w3.org/Graphics/SVG/1.1/DTD/svg11.dtd">
<svg version="1.1" id="Layer_1" xmlns="http://www.w3.org/2000/svg" xmlns:xlink="http://www.w3.org/1999/xlink" x="0px" y="0px"
	 width="100px" height="100px" viewBox="0 0 100 100" enable-background="new 0 0 100 100" xml:space="preserve">
<path fill-rule="evenodd" clip-rule="evenodd" fill="#FFFFFF" d="M44.398,24.597c-2.256-1.308-4.326-2.519-6.409-3.709
	c-1.009-0.577-1.735-1.375-2.028-2.508c-0.432-1.666,0.032-3.093,1.362-4.157c1.365-1.091,2.903-1.198,4.427-0.355
	c2.25,1.245,4.462,2.557,6.69,3.841c3.018,1.741,6.038,3.476,9.051,5.226c1.822,1.059,2.198,2.441,1.161,4.239
	c-3.037,5.271-6.071,10.544-9.126,15.805c-0.893,1.537-2.264,2.253-4.04,2.013c-1.705-0.231-2.808-1.242-3.284-2.881
	c-0.324-1.115-0.121-2.181,0.467-3.19c1.253-2.148,2.483-4.311,3.787-6.579c-2.767,0.632-5.302,1.546-7.603,2.999
	c-7.794,4.921-12.02,11.947-11.991,21.23c0.033,10.98,8.454,20.821,19.267,22.799c13.317,2.437,25.657-5.927,28.123-19.189
	c1.222-6.564-0.212-12.638-4.04-18.123c-0.619-0.888-1.285-1.738-1.371-2.877c-0.134-1.8,0.879-3.421,2.546-4.059
	c1.681-0.642,3.459-0.138,4.598,1.333c1.977,2.556,3.552,5.342,4.645,8.384c6.606,18.376-3.937,37.76-22.949,42.211
	c-16.858,3.947-34.278-7.021-38.018-23.938c-3.788-17.139,6.321-33.694,23.26-38.096C43.35,24.904,43.771,24.775,44.398,24.597z"/>
</svg>
