<?xml version="1.0" encoding="utf-8"?>
<!-- Generator: Adobe Illustrator 16.0.0, SVG Export Plug-In . SVG Version: 6.00 Build 0)  -->
<!DOCTYPE svg PUBLIC "-//W3C//DTD SVG 1.1//EN" "http://www.w3.org/Graphics/SVG/1.1/DTD/svg11.dtd">
<svg version="1.1" id="Layer_1" xmlns="http://www.w3.org/2000/svg" xmlns:xlink="http://www.w3.org/1999/xlink" x="0px" y="0px"
	 width="100px" height="100px" viewBox="326 326 100 100" enable-background="new 326 326 100 100" xml:space="preserve">
<g>
	<path fill="#65805D" d="M345.774,396.81c8.702,0,13.246-2.602,17.273-4.89c3.509-2.009,6.542-3.747,12.955-3.747
		s9.446,1.738,12.955,3.747c4.027,2.288,8.572,4.89,17.274,4.89c1.542,0,2.968-0.823,3.738-2.159c0.772-1.337,0.772-2.982,0-4.318
		c-0.771-1.336-2.196-2.159-3.738-2.159c-6.413,0-9.447-1.737-12.955-3.746h-0.001c-3.913-2.505-8.342-4.096-12.954-4.653v-6.714
		h6.477c5.44,0,10.657-2.161,14.504-6.008c3.848-3.847,6.008-9.064,6.008-14.504c0-2.292-0.909-4.488-2.529-6.108
		s-3.816-2.529-6.107-2.529h-6.477c-6.34,0.011-12.317,2.952-16.194,7.967c-3.876-5.015-9.854-7.956-16.193-7.967h-6.477
		c-2.292,0-4.488,0.909-6.108,2.529c-1.619,1.62-2.529,3.816-2.529,6.108c0,5.439,2.161,10.657,6.008,14.504
		c3.846,3.847,9.063,6.008,14.504,6.008h6.477v6.715v-0.001c-4.613,0.558-9.041,2.148-12.956,4.653
		c-3.508,2.009-6.541,3.747-12.954,3.747c-1.542,0-2.968,0.822-3.74,2.158c-0.771,1.337-0.771,2.982,0,4.318
		C342.806,395.986,344.231,396.81,345.774,396.81L345.774,396.81z M392.195,352.547h6.478c0,3.149-1.251,6.17-3.479,8.397
		c-2.227,2.227-5.248,3.478-8.397,3.478h-6.477c0-3.149,1.251-6.17,3.478-8.397C386.025,353.798,389.046,352.547,392.195,352.547z
		 M365.207,364.422c-3.149,0-6.17-1.251-8.397-3.478s-3.478-5.249-3.478-8.397h6.477c3.15,0,6.17,1.251,8.397,3.479
		c2.227,2.227,3.478,5.248,3.478,8.397H365.207z"/>
	<path fill="#65805D" d="M376.317,405.815c-0.212,0-0.425,0-0.637,0c-0.172-0.024-0.345-0.041-0.515-0.075
		c-2.035-0.399-3.297-2.072-3.418-3.938c-0.066-1.021,0.21-1.953,0.787-2.803c0.977-1.439,1.948-2.882,2.917-4.326
		c0.112-0.166,0.234-0.31,0.434-0.371c0.076,0,0.151,0,0.227,0c0.15,0.059,0.277,0.14,0.37,0.278
		c1.004,1.493,2.018,2.98,3.017,4.477c0.752,1.129,0.967,2.361,0.59,3.66c-0.459,1.575-1.5,2.592-3.124,2.992
		C376.753,405.763,376.533,405.781,376.317,405.815z"/>
	<path fill="#65805D" d="M390.35,414.454c-0.213,0-0.425,0-0.638,0c-0.171-0.025-0.345-0.042-0.515-0.076
		c-2.034-0.398-3.297-2.072-3.418-3.938c-0.066-1.021,0.211-1.952,0.788-2.803c0.977-1.438,1.947-2.882,2.916-4.325
		c0.112-0.167,0.235-0.311,0.434-0.372c0.076,0,0.151,0,0.228,0c0.149,0.059,0.276,0.141,0.369,0.278
		c1.005,1.493,2.018,2.98,3.017,4.478c0.752,1.128,0.967,2.36,0.59,3.659c-0.458,1.576-1.499,2.592-3.123,2.993
		C390.785,414.4,390.565,414.419,390.35,414.454z"/>
	<path fill="#65805D" d="M362.281,414.454c-0.212,0-0.425,0-0.637,0c-0.171-0.025-0.345-0.042-0.515-0.076
		c-2.035-0.398-3.297-2.072-3.418-3.938c-0.066-1.021,0.21-1.952,0.788-2.803c0.977-1.438,1.947-2.882,2.917-4.325
		c0.112-0.167,0.234-0.311,0.434-0.372c0.076,0,0.151,0,0.228,0c0.149,0.059,0.276,0.141,0.37,0.278
		c1.004,1.493,2.017,2.98,3.016,4.478c0.752,1.128,0.967,2.36,0.59,3.659c-0.458,1.576-1.499,2.592-3.123,2.993
		C362.717,414.4,362.497,414.419,362.281,414.454z"/>
</g>
</svg>
