<?xml version="1.0" encoding="utf-8"?>
<!-- Generator: Adobe Illustrator 16.0.0, SVG Export Plug-In . SVG Version: 6.00 Build 0)  -->
<!DOCTYPE svg PUBLIC "-//W3C//DTD SVG 1.1//EN" "http://www.w3.org/Graphics/SVG/1.1/DTD/svg11.dtd">
<svg version="1.1" id="Layer_1" xmlns="http://www.w3.org/2000/svg" xmlns:xlink="http://www.w3.org/1999/xlink" x="0px" y="0px"
	 width="100px" height="100px" viewBox="400 400 100 100" enable-background="new 400 400 100 100" xml:space="preserve">
<g>
	<path fill="#FFFFFF" d="M451.324,417.205c0.148,0.078,0.295,0.162,0.446,0.233c1.038,0.491,1.629,1.295,1.669,2.452
		c0.03,0.872,0.024,1.745,0.006,2.618c-0.008,0.371,0.103,0.527,0.493,0.598c8.132,1.478,14.193,7.332,15.874,15.406
		c0.286,1.375,0.348,2.811,0.385,4.221c0.077,2.943-0.059,5.896,0.124,8.831c0.313,5.019,2.468,9.207,6.205,12.563
		c1.077,0.968,1.905,2.047,2.034,3.53c0.254,2.942-1.79,5.261-4.756,5.42c-0.174,0.01-0.349,0.007-0.523,0.007
		c-15.075,0-30.15-0.003-45.225,0.006c-1.74,0.001-3.212-0.534-4.302-1.935c-1.623-2.085-1.285-4.947,0.825-6.798
		c1.843-1.616,3.343-3.493,4.466-5.67c1.427-2.767,2.076-5.719,2.081-8.822c0.004-2.683-0.032-5.367,0.019-8.05
		c0.172-9.186,7.073-17.181,16.127-18.689c0.515-0.085,0.654-0.271,0.623-0.75c-0.035-0.521,0.034-1.051-0.015-1.57
		c-0.165-1.73,0.486-2.956,2.135-3.601C450.451,417.205,450.888,417.205,451.324,417.205z"/>
	<path fill="#FFFFFF" d="M449.491,484.246c-1.27-0.427-2.617-0.705-3.795-1.312c-2.743-1.411-4.424-3.736-5.212-6.711
		c-0.022-0.082-0.019-0.171-0.033-0.308c6.81,0,13.6,0,20.448,0c-0.228,1.265-0.715,2.416-1.41,3.474
		c-1.748,2.656-4.188,4.259-7.345,4.745c-0.103,0.016-0.197,0.073-0.297,0.111C451.063,484.246,450.276,484.246,449.491,484.246z"/>
</g>
</svg>
