<?xml version="1.0" encoding="utf-8"?>
<!-- Generator: Adobe Illustrator 16.0.0, SVG Export Plug-In . SVG Version: 6.00 Build 0)  -->
<!DOCTYPE svg PUBLIC "-//W3C//DTD SVG 1.1//EN" "http://www.w3.org/Graphics/SVG/1.1/DTD/svg11.dtd">
<svg version="1.1" id="Layer_1" xmlns="http://www.w3.org/2000/svg" xmlns:xlink="http://www.w3.org/1999/xlink" x="0px" y="0px"
	 width="100px" height="100px" viewBox="0 0 100 100" enable-background="new 0 0 100 100" xml:space="preserve">
<path fill-rule="evenodd" clip-rule="evenodd" fill="#FFFFFF" d="M8.982,40.171c0.725-0.959,1.353-2.014,2.19-2.862
	c4.948-5.013,9.952-9.971,14.922-14.963c1.082-1.086,2.318-1.61,3.833-1.229c2.471,0.621,3.51,3.646,1.963,5.681
	c-0.245,0.323-0.536,0.614-0.824,0.902c-2.94,2.945-5.884,5.886-8.825,8.829c-0.208,0.209-0.408,0.426-0.775,0.812
	c0.501,0,0.807,0,1.113,0c15.883,0,31.767,0.006,47.649-0.006c2.994-0.002,5.915,0.387,8.684,1.551
	c6.515,2.736,10.821,7.49,12.807,14.283c0.393,1.347,0.56,2.759,0.83,4.141c0,1.088,0,2.176,0,3.265
	c-0.225,1.224-0.38,2.466-0.686,3.669c-2.169,8.56-9.211,14.868-17.947,16.088c-1.101,0.154-2.22,0.25-3.329,0.252
	c-9.765,0.02-19.53,0.015-29.295,0.009c-2.106-0.002-3.484-0.958-3.973-2.707c-0.615-2.204,0.976-4.444,3.264-4.573
	c0.678-0.037,1.359-0.018,2.04-0.018c9.33-0.001,18.66,0.011,27.989-0.005c6.457-0.011,11.704-3.707,13.864-9.716
	c3.1-8.626-3.21-18.253-12.369-18.864c-0.895-0.06-1.793-0.089-2.689-0.09c-15.586-0.005-31.171-0.004-46.756-0.004
	c-0.32,0-0.641,0-1.173,0c0.312,0.338,0.494,0.55,0.69,0.747c3.056,3.061,6.121,6.111,9.167,9.181
	c1.549,1.562,1.712,3.517,0.467,5.067c-1.235,1.538-3.477,1.812-5.036,0.603c-0.321-0.249-0.613-0.538-0.901-0.826
	c-4.887-4.883-9.789-9.752-14.642-14.669c-0.856-0.868-1.507-1.938-2.252-2.915C8.982,41.259,8.982,40.715,8.982,40.171z"/>
</svg>
