<?xml version="1.0" encoding="utf-8"?>
<!-- Generator: Adobe Illustrator 16.0.0, SVG Export Plug-In . SVG Version: 6.00 Build 0)  -->
<!DOCTYPE svg PUBLIC "-//W3C//DTD SVG 1.1//EN" "http://www.w3.org/Graphics/SVG/1.1/DTD/svg11.dtd">
<svg version="1.1" id="Layer_1" xmlns="http://www.w3.org/2000/svg" xmlns:xlink="http://www.w3.org/1999/xlink" x="0px" y="0px"
	 width="100px" height="100px" viewBox="0 0 100 100" enable-background="new 0 0 100 100" xml:space="preserve">
<path fill-rule="evenodd" clip-rule="evenodd" fill="#FFFFFF" d="M51.876,5.391c1.594,0.549,3.32,0.866,4.756,1.691
	c4.266,2.45,6.347,6.271,6.349,11.197c0.005,13.029,0.008,26.059-0.014,39.088c-0.002,0.77,0.219,1.275,0.811,1.784
	c5.398,4.657,7.78,10.602,7.259,17.672c-0.669,9.068-8.151,17.067-17.086,18.401c-0.577,0.087-1.148,0.215-1.722,0.323
	c-1.174,0-2.348,0-3.522,0c-1.926-0.479-3.947-0.731-5.763-1.479c-7.229-2.979-11.684-8.373-12.852-16.12
	c-1.14-7.56,1.399-13.911,7.2-18.913c0.496-0.428,0.679-0.845,0.678-1.489c-0.018-13.118-0.023-26.236-0.009-39.354
	c0.007-6.226,3.942-11.165,9.918-12.524c0.394-0.089,0.787-0.185,1.18-0.277C49.998,5.391,50.937,5.391,51.876,5.391z M57.57,38.467
	c0-6.542,0.002-13.085-0.002-19.627c0-0.528-0.005-1.058-0.059-1.582c-0.288-2.784-1.745-4.783-4.286-5.862
	c-2.511-1.066-4.953-0.735-7.129,0.952c-2.007,1.556-2.744,3.687-2.74,6.182c0.021,13.466-0.005,26.933,0.03,40.399
	c0.004,1.586-0.527,2.693-1.82,3.637c-5.371,3.92-7.618,10.322-5.688,16.658c1.707,5.604,5.542,9.208,11.263,10.499
	c5.578,1.259,10.522-0.247,14.42-4.436c6.396-6.874,5.35-17.18-2.221-22.748c-1.265-0.93-1.796-2.017-1.786-3.564
	C57.595,52.139,57.57,45.303,57.57,38.467z"/>
<path fill-rule="evenodd" clip-rule="evenodd" fill="#FFFFFF" d="M47.78,48.076c0-5.721-0.007-0.485,0.004-6.207
	c0.004-1.919,1.161-3.097,2.884-2.995c1.276,0.075,2.323,1.064,2.451,2.342c0.041,0.407,0.035,0.82,0.035,1.23
	c0.001,11.296,0.008,11.634-0.017,22.93c-0.001,0.692,0.194,1.017,0.846,1.282c4.562,1.865,6.775,7.458,4.712,11.808
	c-2.313,4.876-7.851,6.816-12.412,4.301c-3.208-1.77-4.9-4.539-4.754-8.201c0.149-3.762,2.071-6.458,5.549-7.963
	c0.553-0.238,0.717-0.517,0.715-1.101C47.771,59.695,47.78,53.886,47.78,48.076z"/>
</svg>
