<?xml version="1.0" encoding="utf-8"?>
<!-- Generator: Adobe Illustrator 16.0.0, SVG Export Plug-In . SVG Version: 6.00 Build 0)  -->
<!DOCTYPE svg PUBLIC "-//W3C//DTD SVG 1.1//EN" "http://www.w3.org/Graphics/SVG/1.1/DTD/svg11.dtd">
<svg version="1.1" id="Layer_1" xmlns="http://www.w3.org/2000/svg" xmlns:xlink="http://www.w3.org/1999/xlink" x="0px" y="0px"
	 width="100px" height="100px" viewBox="400 400 100 100" enable-background="new 400 400 100 100" xml:space="preserve">
<path fill="#FFFFFF" d="M451.808,483.592c-1.225,0-2.449,0-3.674,0c-0.99-0.145-1.988-0.244-2.968-0.439
	c-11.734-2.33-19.013-12.094-19.712-22.979c-0.383-5.956,1.215-11.394,4.542-16.354c5.632-8.397,11.231-16.817,16.82-25.243
	c0.646-0.973,1.352-1.807,2.5-2.169c0.437,0,0.875,0,1.312,0c0.863,0.342,1.595,0.818,2.132,1.627
	c5.79,8.712,11.634,17.389,17.392,26.123c4.34,6.583,5.578,13.779,3.402,21.356c-2.641,9.194-8.646,15.122-18.012,17.463
	C454.322,483.281,453.054,483.392,451.808,483.592z"/>
</svg>
